<?xml version="1.0" encoding="UTF-8"?>
<svg version="1.1" xmlns="http://www.w3.org/2000/svg" width="478" height="134">
<path d="M0 0 C0.6290625 0.26296875 1.258125 0.5259375 1.90625 0.796875 C7.92341285 3.51892486 13.21157099 7.46669221 18 12 C18 12.66 18 13.32 18 14 C19.485 14.495 19.485 14.495 21 15 C26.21047354 20.99150962 30.32951929 27.53039453 33 35 C33.44666016 36.10408203 33.44666016 36.10408203 33.90234375 37.23046875 C39.06803612 52.2038351 37.04007272 69.72494371 30.71484375 83.875 C23.85652812 97.62983915 11.42433005 109.48539219 -3 115 C-21.59429006 121.17111912 -38.4737793 120.63872199 -56.375 112.125 C-61.19430382 109.57968404 -66.07432676 106.83330446 -70 103 C-70 102.34 -70 101.68 -70 101 C-71.485 100.505 -71.485 100.505 -73 100 C-84.73675157 86.49084764 -91.0172044 70.97850208 -90.4453125 52.92578125 C-88.71592185 37.67983735 -83.08439307 21.25545502 -70.875 11.1875 C-68 9 -68 9 -66 9 C-66 8.34 -66 7.68 -66 7 C-63.51639252 5.05803032 -60.73406896 3.56232512 -58 2 C-57.36449219 1.63390625 -56.72898438 1.2678125 -56.07421875 0.890625 C-38.48743585 -8.57638029 -18.0164191 -7.76569789 0 0 Z M-46 26 C-46.02312764 33.93613787 -46.04091723 41.87226176 -46.05181217 49.80842495 C-46.05704008 53.49314498 -46.06413605 57.17784203 -46.07543945 60.86254883 C-46.08627162 64.41570831 -46.09227753 67.96884563 -46.09487724 71.52202034 C-46.0967309 72.88045666 -46.10035038 74.23889171 -46.10573006 75.59731865 C-46.11294475 77.49382223 -46.11340809 79.39034793 -46.11352539 81.28686523 C-46.115746 82.36830307 -46.11796661 83.44974091 -46.12025452 84.56394958 C-46.2758197 86.94797472 -46.2758197 86.94797472 -45 88 C-42.12735944 88.10106874 -39.27926372 88.13969672 -36.40625 88.1328125 C-35.1134613 88.13424759 -35.1134613 88.13424759 -33.79455566 88.13571167 C-31.96866788 88.1363935 -30.14277769 88.13453904 -28.31689453 88.13037109 C-25.51198922 88.12502286 -22.70724405 88.13031599 -19.90234375 88.13671875 C-18.13281214 88.13605797 -16.36328064 88.13477681 -14.59375 88.1328125 C-13.74897095 88.13483673 -12.90419189 88.13686096 -12.03381348 88.13894653 C-8.2081314 88.49924511 -8.2081314 88.49924511 -5 87 C-4.9020943 85.50261876 -4.87025136 84.00057108 -4.875 82.5 C-4.87242188 81.6853125 -4.86984375 80.870625 -4.8671875 80.03125 C-4.7754822 78.00469623 -4.7754822 78.00469623 -6 77 C-8.14558827 76.91224395 -10.29404421 76.89304781 -12.44140625 76.90234375 C-13.74658203 76.90556641 -15.05175781 76.90878906 -16.39648438 76.91210938 C-17.7851569 76.92046599 -19.17382877 76.92893095 -20.5625 76.9375 C-21.95507656 76.94251334 -23.34765481 76.94707653 -24.74023438 76.95117188 C-28.16017451 76.96300558 -31.5800925 76.98094169 -35 77 C-35 72.05 -35 67.1 -35 62 C-33.21851563 62.01160156 -31.43703125 62.02320313 -29.6015625 62.03515625 C-27.27604271 62.04453335 -24.95052179 62.05363363 -22.625 62.0625 C-21.449375 62.07087891 -20.27375 62.07925781 -19.0625 62.08789062 C-17.94101563 62.09111328 -16.81953125 62.09433594 -15.6640625 62.09765625 C-14.62717285 62.10289307 -13.5902832 62.10812988 -12.52197266 62.11352539 C-10.0040332 62.17140815 -10.0040332 62.17140815 -8 61 C-8 58.03 -8 55.06 -8 52 C-20.87 51.505 -20.87 51.505 -34 51 C-34.33 46.38 -34.66 41.76 -35 37 C-33.00195312 37.02320313 -31.00390625 37.04640625 -28.9453125 37.0703125 C-27.01253761 37.08421736 -25.07976148 37.09805206 -23.14697266 37.10986328 C-21.1408864 37.12488107 -19.13488676 37.15028981 -17.12890625 37.17578125 C-15.24365234 37.18544922 -15.24365234 37.18544922 -13.3203125 37.1953125 C-12.15773926 37.20578613 -10.99516602 37.21625977 -9.79736328 37.22705078 C-6.86089721 37.29261997 -6.86089721 37.29261997 -5 35 C-4.67247766 32.28545044 -4.8691575 29.74769241 -5 27 C-6.21071796 25.56075132 -6.21071796 25.56075132 -9.78540039 25.88647461 C-11.47282729 25.88663378 -13.16025905 25.89233083 -14.84765625 25.90234375 C-15.7340831 25.9037587 -16.62050995 25.90517365 -17.53379822 25.90663147 C-20.37673254 25.91224785 -23.21958931 25.92480309 -26.0625 25.9375 C-27.98502491 25.94251289 -29.90755104 25.94707616 -31.83007812 25.95117188 C-36.55341549 25.96222259 -41.27669458 25.97949817 -46 26 Z " fill="#387EDE" transform="translate(99,11)"/>
<path d="M0 0 C3.3 0 6.6 0 10 0 C10 9.9 10 19.8 10 30 C15.61 30 21.22 30 27 30 C26.9175 28.14375 26.835 26.2875 26.75 24.375 C26.76253241 19.05499312 27.15045587 15.95084792 31 12 C34.81689882 9.39756899 38.24700019 8.39892308 42.90625 8.578125 C46.79598237 9.36187704 50.05872471 11.37632721 53 14 C55 18 55 18 55 27 C46.09 27.99 46.09 27.99 37 29 C37 29.66 37 30.32 37 31 C40.41656024 31.16677282 40.41656024 31.16677282 44 31 C44.66 30.34 45.32 29.68 46 29 C47.27875 29.0825 48.5575 29.165 49.875 29.25 C52.00878911 29.39408906 52.00878911 29.39408906 54 29 C56.44319227 26.16931218 56.44319227 26.16931218 58 23 C58.66 22.67 59.32 22.34 60 22 C59.01 21.67 58.02 21.34 57 21 C56 18 56 18 57.125 15 C59.27953916 11.55273734 60.19966791 10.42512453 64 9 C69.03827496 8.45368103 73.44350162 8.31514071 78.125 10.375 C80 12 80 12 81 14 C81.07194869 16.88370333 81.09291708 19.74239664 81.0625 22.625 C81.05798828 23.42679688 81.05347656 24.22859375 81.04882812 25.0546875 C81.03703168 27.03649006 81.01909605 29.01825433 81 31 C81.99 31 82.98 31 84 31 C84 33.64 84 36.28 84 39 C80.98131566 40.50934217 78.32702771 40.17510672 75 40 C73.515 39.01 73.515 39.01 72 38 C71.01 38.66 70.02 39.32 69 40 C62.36760925 40.88431877 62.36760925 40.88431877 58.921875 38.65625 C57.19607577 37.16897587 55.57072074 35.64925678 54 34 C53.236875 34.804375 52.47375 35.60875 51.6875 36.4375 C47.7723717 40.17052931 44.52886546 40.32614418 39.36328125 40.30078125 C35.56556582 39.81743565 33.1379958 38.13650778 30 36 C29.67 36.33 29.34 36.66 29 37 C29 37.66 29 38.32 29 39 C24.5420032 39.19616609 20.08359465 39.38047068 15.625 39.5625 C13.71847656 39.64661133 13.71847656 39.64661133 11.7734375 39.73242188 C10.56171875 39.78076172 9.35 39.82910156 8.1015625 39.87890625 C6.98088379 39.9260376 5.86020508 39.97316895 4.70556641 40.02172852 C2 40 2 40 0 39 C0 26.13 0 13.26 0 0 Z M39 17 C38.01 18.485 38.01 18.485 37 20 C39.64 20 42.28 20 45 20 C44.34 19.01 43.68 18.02 43 17 C41.68 17 40.36 17 39 17 Z M67 17 C66.67 17.99 66.34 18.98 66 20 C67.98 20 69.96 20 72 20 C72 19.01 72 18.02 72 17 C70.35 17 68.7 17 67 17 Z M65 29 C65 29.66 65 30.32 65 31 C66.98 31 68.96 31 71 31 C71.33 29.68 71.66 28.36 72 27 C68.89448334 27 67.64738916 27.5393715 65 29 Z " fill="#2E5581" transform="translate(249,48)"/>
<path d="M0 0 C0.825 -0.165 1.65 -0.33 2.5 -0.5 C6.912242 -1.13032029 10.97029865 -0.6882418 15.390625 -0.25390625 C18.83759011 0.13958808 18.83759011 0.13958808 22 -1 C29.06187625 -1.57884232 29.06187625 -1.57884232 32.9375 0.8125 C36.10201093 4.16879947 36.12209759 6.90033689 36.09765625 11.32421875 C36.09443359 12.35224609 36.09121094 13.38027344 36.08789062 14.43945312 C36.07532227 16.04723633 36.07532227 16.04723633 36.0625 17.6875 C36.05798828 18.77095703 36.05347656 19.85441406 36.04882812 20.97070312 C36.03703743 23.64719085 36.02058063 26.32356777 36 29 C29.84765625 29.87890625 29.84765625 29.87890625 28 30 C25.72814643 27.72814643 26.59288605 21.57610671 26.48242188 18.34570312 C26.26076583 12.90276906 26.26076583 12.90276906 24 8 C22.00016466 8.79117904 22.00016466 8.79117904 20 10 C19.13580777 12.59257669 18.82419068 14.34037707 18.68359375 17.01171875 C18.64169922 17.76904297 18.59980469 18.52636719 18.55664062 19.30664062 C18.51732422 20.09232422 18.47800781 20.87800781 18.4375 21.6875 C18.39431641 22.48478516 18.35113281 23.28207031 18.30664062 24.10351562 C18.20072632 26.06881447 18.09987449 28.03438496 18 30 C11.25 30.125 11.25 30.125 9 29 C9 22.07 9 15.14 9 8 C3.53178657 8.64706816 3.53178657 8.64706816 -1 11 C-1.15582303 12.34015221 -1.25044142 13.68758903 -1.31640625 15.03515625 C-1.35830078 15.84404297 -1.40019531 16.65292969 -1.44335938 17.48632812 C-1.48267578 18.33646484 -1.52199219 19.18660156 -1.5625 20.0625 C-1.60568359 20.91650391 -1.64886719 21.77050781 -1.69335938 22.65039062 C-1.79976702 24.76672037 -1.90041731 26.88333813 -2 29 C-4 30 -4 30 -11 29 C-11 19.43 -11 9.86 -11 0 C-3.91954023 -1.01149425 -3.91954023 -1.01149425 0 0 Z " fill="#3F5E87" transform="translate(345,58)"/>
<path d="M0 0 C9.24 0 18.48 0 28 0 C28 2.97 28 5.94 28 9 C21.73 9 15.46 9 9 9 C9 10.98 9 12.96 9 15 C10.82337891 14.98259766 10.82337891 14.98259766 12.68359375 14.96484375 C14.26822764 14.95546722 15.85286318 14.94636687 17.4375 14.9375 C18.23994141 14.92912109 19.04238281 14.92074219 19.86914062 14.91210938 C21.91295221 14.9034857 23.95683902 14.9477185 26 15 C27 16 27 16 27 24 C21.06 24 15.12 24 9 24 C9 25.98 9 27.96 9 30 C10.80597656 29.98259766 10.80597656 29.98259766 12.6484375 29.96484375 C14.22395679 29.95546566 15.79947775 29.94636548 17.375 29.9375 C18.1690625 29.92912109 18.963125 29.92074219 19.78125 29.91210938 C25.7734375 29.88671875 25.7734375 29.88671875 28 31 C28 33.64 28 36.28 28 39 C23.10598066 40.63133978 18.06166204 40.18452602 12.9375 40.1875 C11.82310547 40.19974609 10.70871094 40.21199219 9.56054688 40.22460938 C7.96629883 40.22750977 7.96629883 40.22750977 6.33984375 40.23046875 C5.36394287 40.23457764 4.38804199 40.23868652 3.38256836 40.24291992 C1 40 1 40 -1 38 C-1.18745097 35.4653614 -1.25573138 33.04211239 -1.23046875 30.5078125 C-1.23001053 29.76546356 -1.22955231 29.02311462 -1.2290802 28.25827026 C-1.22605703 26.6863241 -1.21816876 25.11438096 -1.20581055 23.54248047 C-1.18762492 21.14149294 -1.18530041 18.74089277 -1.18554688 16.33984375 C-1.18062874 14.81249668 -1.17479913 13.28515222 -1.16796875 11.7578125 C-1.16685593 11.04102325 -1.1657431 10.32423401 -1.16459656 9.58572388 C-1.13208221 6.15100772 -0.84078828 3.36315313 0 0 Z " fill="#3D618A" transform="translate(158,48)"/>
<path d="M0 0 C3.00099588 -0.10890711 5.99796378 -0.18773555 9 -0.25 C9.83917969 -0.28351562 10.67835938 -0.31703125 11.54296875 -0.3515625 C17.46335368 -0.44335141 22.13319589 0.460235 27 4 C30.11988016 8.67982024 29.57729329 13.5231149 29 19 C27.5 22.125 27.5 22.125 25 24 C19.51783187 25.91875884 14.77261927 26.20616497 9 26 C9 30.29 9 34.58 9 39 C6.23749964 40.38125018 4.05268901 40.19079306 1 40 C-1.54956487 37.45043513 -1.23726715 35.81210813 -1.25224304 32.3359375 C-1.24505753 31.56507812 -1.23787201 30.79421875 -1.23046875 30 C-1.23001053 29.20851563 -1.22955231 28.41703125 -1.2290802 27.6015625 C-1.22605731 25.9270681 -1.2181699 24.25257652 -1.20581055 22.578125 C-1.18757326 20.01031569 -1.18530072 17.44286726 -1.18554688 14.875 C-1.18063094 13.24999687 -1.17480229 11.6249962 -1.16796875 10 C-1.16685593 9.22914062 -1.1657431 8.45828125 -1.16459656 7.6640625 C-1.11606989 2.23213978 -1.11606989 2.23213978 0 0 Z M9 9 C9 11.64 9 14.28 9 17 C14.08303686 17.11320856 14.08303686 17.11320856 19 16 C19.16687448 13.58354218 19.16687448 13.58354218 19 11 C17.23863645 8.81668311 17.23863645 8.81668311 15.0546875 8.8046875 C12.02734375 8.90234375 12.02734375 8.90234375 9 9 Z " fill="#2E5180" transform="translate(397,48)"/>
<path d="M0 0 C2.97 0 5.94 0 9 0 C9 12.87 9 25.74 9 39 C1 40 1 40 -1 39 C-1.99 39.495 -1.99 39.495 -3 40 C-7.04493892 40.2652419 -9.94533817 40.38351339 -13.75 39 C-17.53544365 35.6351612 -19.52506049 31.75368971 -20.38671875 26.7578125 C-20.67014858 21.10876281 -19.29488284 16.60203308 -16 12 C-12.99537315 9.32922058 -10.71620584 8.83470971 -6.8125 8.75 C-3 9 -3 9 -1 10 C-0.67 6.7 -0.34 3.4 0 0 Z M-7.625 18.375 C-10.2991086 21.53531017 -10.24898143 23.93330336 -10 28 C-9.01 29.485 -9.01 29.485 -8 31 C-4.91634129 31.2502157 -4.91634129 31.2502157 -2 31 C0.22532845 26.68024478 0.06433568 23.70081591 -1 19 C-1.66 18.34 -2.32 17.68 -3 17 C-5.97308574 16.67702888 -5.97308574 16.67702888 -7.625 18.375 Z " fill="#355681" transform="translate(206,48)"/>
<path d="M0 0 C7.28576879 3.90309042 7.28576879 3.90309042 8.609375 7.7890625 C9.59736627 13.38109307 9.5863545 18.98440641 8 24.4375 C5.22132169 27.99768159 2.26397271 29.60752183 -2 31 C-7.2453441 31.63305877 -10.56130208 30.86049421 -15 28 C-19.87991469 22.59252697 -20.35447128 19.14400251 -20.27734375 11.98828125 C-19.90352577 7.96052414 -18.81565828 5.88975455 -16 3 C-11.06684225 -0.52368411 -5.87109273 -0.88638251 0 0 Z M-9.875 10.0625 C-11.34318095 13.89608359 -11.162013 16.07820613 -10 20 C-7.82108941 22.2081584 -7.82108941 22.2081584 -5 23 C-2.63598327 22.81825477 -2.63598327 22.81825477 -1 21 C0.22829045 16.35004328 0.25971824 13.26835668 -2 9 C-3.05054601 7.75339676 -3.05054601 7.75339676 -5.375 7.625 C-8.16261335 7.73868896 -8.16261335 7.73868896 -9.875 10.0625 Z " fill="#3A5881" transform="translate(465,57)"/>
<path d="M0 0 C2.97 0 5.94 0 9 0 C9.33 6.93 9.66 13.86 10 21 C11.98 20.34 13.96 19.68 16 19 C17.20247354 15.39257938 17.07045077 12.12298119 17 8.375 C16.9541812 5.90994869 16.95290615 3.46654055 17 1 C17.33 0.67 17.66 0.34 18 0 C20.64 0 23.28 0 26 0 C26 9.9 26 19.8 26 30 C23.36 30 20.72 30 18 30 C18 29.34 18 28.68 18 28 C17.505 28.33 17.01 28.66 16.5 29 C12.28178961 30.68728416 7.94427897 30.61398283 3.625 29.25 C0.90369597 27.15668921 0.10636689 24.8102038 -0.3347168 21.45043945 C-0.37250244 20.51417725 -0.41028809 19.57791504 -0.44921875 18.61328125 C-0.49240234 17.59298828 -0.53558594 16.57269531 -0.58007812 15.52148438 C-0.61552734 14.46251953 -0.65097656 13.40355469 -0.6875 12.3125 C-0.75807617 10.70665039 -0.75807617 10.70665039 -0.83007812 9.06835938 C-1.05545596 3.24178816 -1.05545596 3.24178816 -1 1 C-0.67 0.67 -0.34 0.34 0 0 Z " fill="#355580" transform="translate(219,58)"/>
<path d="M0 0 C3.00099588 -0.10890711 5.99796378 -0.18773555 9 -0.25 C9.83917969 -0.28351562 10.67835938 -0.31703125 11.54296875 -0.3515625 C17.46335368 -0.44335141 22.13319589 0.460235 27 4 C29.27947698 7.41921547 29.32513105 8.90310177 29.375 12.9375 C29.40335937 13.97777344 29.43171875 15.01804687 29.4609375 16.08984375 C28.90019633 19.63011638 27.72384266 20.76601837 25 23 C25.144375 22.34 25.28875 21.68 25.4375 21 C26.12299916 17.34400449 26.56175515 13.69377805 27 10 C23.72226496 10.75150023 23.72226496 10.75150023 22 14 C21.67 13.01 21.34 12.02 21 11 C20.01 12.485 20.01 12.485 19 14 C18.7525 13.0409375 18.7525 13.0409375 18.5 12.0625 C17.22920172 9.83914778 17.22920172 9.83914778 15.15625 9.58203125 C13.73201402 9.44528395 12.30415442 9.34174267 10.875 9.2734375 C9 9 9 9 7 7 C7 9.97 7 12.94 7 16 C5.02 16.99 5.02 16.99 3 18 C2.34 17.67 1.68 17.34 1 17 C1 23.6 1 30.2 1 37 C1.99 37.33 2.98 37.66 4 38 C2.0625 38.5625 2.0625 38.5625 0 39 C-1.78365341 37.21634659 -1.12846636 34.82382995 -1.13894653 32.44923401 C-1.1369223 31.67321335 -1.13489807 30.89719269 -1.1328125 30.09765625 C-1.13376923 29.30475693 -1.13472595 28.5118576 -1.13571167 27.69493103 C-1.13639351 26.0144747 -1.13453896 24.33401575 -1.13037109 22.65356445 C-1.1250299 20.07692555 -1.13031228 17.50046152 -1.13671875 14.92382812 C-1.13605783 13.29427045 -1.13477638 11.66471288 -1.1328125 10.03515625 C-1.13483673 9.26115982 -1.13686096 8.48716339 -1.13894653 7.68971252 C-1.11495583 2.22991166 -1.11495583 2.22991166 0 0 Z " fill="#335682" transform="translate(397,48)"/>
<path d="M0 0 C3.8179977 0.49264486 6.95633606 0.25873279 10.75 -0.5 C11.75 0.5 11.75 0.5 11.84765625 2.34765625 C11.81510417 4.3984375 11.78255208 6.44921875 11.75 8.5 C10.780625 8.78875 9.81125 9.0775 8.8125 9.375 C5.64335797 10.14214682 5.64335797 10.14214682 4.75 12.5 C4.51725791 15.37910588 4.33027243 18.24146495 4.1875 21.125 C4.14431641 21.92679688 4.10113281 22.72859375 4.05664062 23.5546875 C3.95048543 25.5362511 3.84973145 27.51810271 3.75 29.5 C-2.875 30.625 -2.875 30.625 -6.25 29.5 C-6.25 19.93 -6.25 10.36 -6.25 0.5 C-3.77956271 -0.73521864 -2.70126066 -0.4042703 0 0 Z " fill="#365683" transform="translate(433.25,57.5)"/>
<path d="M0 0 C12 2 12 2 14 4 C13.34 4 12.68 4 12 4 C12 4.66 12 5.32 12 6 C11.01 6.495 11.01 6.495 10 7 C9.67 14.26 9.34 21.52 9 29 C7 30 7 30 0 29 C0 19.43 0 9.86 0 0 Z " fill="#31527C" transform="translate(334,58)"/>
<path d="M0 0 C7.28576879 3.90309042 7.28576879 3.90309042 8.609375 7.7890625 C9.60755663 13.4387705 9.65865157 19.05871115 7.8125 24.5 C5.7968512 27.28020524 4.10451363 28.56714755 1 30 C0.34 30 -0.32 30 -1 30 C-1 29.34 -1 28.68 -1 28 C-1.66 27.67 -2.32 27.34 -3 27 C3.75 24 3.75 24 6 24 C6 22.02 6 20.04 6 18 C3.72707059 19.01889939 2.16975439 19.80902631 0.5 21.6875 C0.005 22.120625 -0.49 22.55375 -1 23 C-3.1875 22.6875 -3.1875 22.6875 -5 22 C-4.01 21.67 -3.02 21.34 -2 21 C-0.97601997 15.88009984 -1.23088162 12.86507556 -3 8 C-2.67 7.01 -2.34 6.02 -2 5 C-7.17098932 4.12356113 -10.17924942 3.65849258 -15 6 C-15.99 6 -16.98 6 -18 6 C-12.38353281 0.07993998 -7.99682751 -0.93275593 0 0 Z " fill="#456489" transform="translate(465,57)"/>
<path d="M0 0 C3.375 -0.1875 3.375 -0.1875 7 0 C7.66 0.99 8.32 1.98 9 3 C9.66 3 10.32 3 11 3 C11 2.34 11 1.68 11 1 C12.32 1.66 13.64 2.32 15 3 C15 3.66 15 4.32 15 5 C15.99 5 16.98 5 18 5 C18 7.64 18 10.28 18 13 C14.98131566 14.50934217 12.32702771 14.17510672 9 14 C8.01 13.34 7.02 12.68 6 12 C5.01 12.66 4.02 13.32 3 14 C-4.14893617 14.68085106 -4.14893617 14.68085106 -7.5 12 C-7.995 11.34 -8.49 10.68 -9 10 C-7.36587557 8.29159719 -6.13093906 7.06546953 -4 6 C-4.66 5.67 -5.32 5.34 -6 5 C-5.67 4.01 -5.34 3.02 -5 2 C-3.35 2 -1.7 2 0 2 C0 1.34 0 0.68 0 0 Z M-1 3 C-1 3.66 -1 4.32 -1 5 C0.98 5 2.96 5 5 5 C5.33 3.68 5.66 2.36 6 1 C2.89448334 1 1.64738916 1.5393715 -1 3 Z " fill="#607A9B" transform="translate(315,74)"/>
<path d="M0 0 C2.64 0 5.28 0 8 0 C8 9.9 8 19.8 8 30 C1 29 1 29 -1 27.5 C-2.23698856 24.40752859 -1.82878808 22.09447832 -1.32421875 18.85546875 C-0.76610342 13.94001925 -0.98410182 9.00158514 -1.0625 4.0625 C-1 1 -1 1 0 0 Z " fill="#315480" transform="translate(237,58)"/>
<path d="M0 0 C1.32 0 2.64 0 4 0 C4 9.57 4 19.14 4 29 C3.01 29 2.02 29 1 29 C1 29.66 1 30.32 1 31 C0.01 31.33 -0.98 31.66 -2 32 C-2.66 31.67 -3.32 31.34 -4 31 C-4 22.75 -4 14.5 -4 6 C-2.68 5.34 -1.36 4.68 0 4 C0 3.01 0 2.02 0 1 C0 0.67 0 0.34 0 0 Z " fill="#2F517D" transform="translate(254,49)"/>
<path d="M0 0 C-0.99 0.33 -1.98 0.66 -3 1 C-3 1.66 -3 2.32 -3 3 C-3.66 3 -4.32 3 -5 3 C-5 5.64 -5 8.28 -5 11 C-1.7 11 1.6 11 5 11 C5.33 10.34 5.66 9.68 6 9 C6 10.32 6 11.64 6 13 C5.34 13 4.68 13 4 13 C4 13.66 4 14.32 4 15 C3.39671875 15.02578125 2.7934375 15.0515625 2.171875 15.078125 C-3.04453897 15.4034799 -3.04453897 15.4034799 -7.5 17.9375 C-9.02911232 19.92122549 -9.02911232 19.92122549 -10 22 C-11.32 21.34 -12.64 20.68 -14 20 C-14.68826474 8.18478865 -14.68826474 8.18478865 -12.25 4.375 C-8.28110907 0.18561512 -5.7388842 -0.26085837 0 0 Z " fill="#2B517F" transform="translate(290,58)"/>
<path d="M0 0 C2.48338078 2.48338078 2.64563276 4.43449134 2.875 7.875 C1.885 7.545 0.895 7.215 -0.125 6.875 C-3.07255143 7.3215987 -3.96204973 7.71204973 -6.125 9.875 C-6.125 8.885 -6.125 7.895 -6.125 6.875 C-8.59766765 7.21944881 -8.59766765 7.21944881 -11.125 7.875 C-11.455 8.535 -11.785 9.195 -12.125 9.875 C-11.135 10.205 -10.145 10.535 -9.125 10.875 C-10.445 10.875 -11.765 10.875 -13.125 10.875 C-13.455 10.215 -13.785 9.555 -14.125 8.875 C-15.115 8.875 -16.105 8.875 -17.125 8.875 C-17.125 8.215 -17.125 7.555 -17.125 6.875 C-18.115 6.875 -19.105 6.875 -20.125 6.875 C-20.125 7.535 -20.125 8.195 -20.125 8.875 C-20.785 8.545 -21.445 8.215 -22.125 7.875 C-20.80205584 4.7417112 -19.62181215 2.34076139 -17.125 0 C-11.53906361 -2.09472615 -5.5991002 -2.01567607 0 0 Z " fill="#2A5085" transform="translate(327.125,58.125)"/>
<path d="M0 0 C2 0 4 0 6 0 C6.34146341 9.90243902 6.34146341 9.90243902 4 14 C-1.4112267 16.05253427 -6.26020509 16.20499268 -12 16 C-12 15.34 -12 14.68 -12 14 C-12.66 13.67 -13.32 13.34 -14 13 C-12.9375 11 -12.9375 11 -11 9 C-7.3125 8.75 -7.3125 8.75 -4 9 C-3.67 8.34 -3.34 7.68 -3 7 C-3.66 6.67 -4.32 6.34 -5 6 C-4.01 6 -3.02 6 -2 6 C-1.34 4.02 -0.68 2.04 0 0 Z " fill="#3C5E85" transform="translate(418,58)"/>
<path d="M0 0 C-0.33 0.99 -0.66 1.98 -1 3 C-1.99 2.67 -2.98 2.34 -4 2 C-4.33 3.65 -4.66 5.3 -5 7 C-4.34 7 -3.68 7 -3 7 C-2.67 10.3 -2.34 13.6 -2 17 C-3.32 17.33 -4.64 17.66 -6 18 C-6.99 18.33 -7.98 18.66 -9 19 C-9.33 17.68 -9.66 16.36 -10 15 C-10 16.65 -10 18.3 -10 20 C-10.66 19.67 -11.32 19.34 -12 19 C-12.54529147 12.4565024 -11.9308167 7.41438301 -8 2 C-3.9 -1.3 -3.9 -1.3 0 0 Z " fill="#46678F" transform="translate(198,58)"/>
<path d="M0 0 C1.65 0 3.3 0 5 0 C4.67 1.32 4.34 2.64 4 4 C6.97 4 9.94 4 13 4 C10.25 10.875 10.25 10.875 8 12 C0.73260073 12.58608059 0.73260073 12.58608059 -2.5 10 C-2.995 9.34 -3.49 8.68 -4 8 C-2.36587557 6.29159719 -1.13093906 5.06546953 1 4 C0.34 3.67 -0.32 3.34 -1 3 C-0.67 2.01 -0.34 1.02 0 0 Z " fill="#395B8A" transform="translate(310,76)"/>
<path d="M0 0 C0.33 0 0.66 0 1 0 C1 9.9 1 19.8 1 30 C-7 31 -7 31 -9 30 C-9.66 30.33 -10.32 30.66 -11 31 C-16.35421369 31.35109598 -19.60703213 31.43200615 -24 28 C-24 27.67 -24 27.34 -24 27 C-17.07 27.495 -17.07 27.495 -10 28 C-9.67 27.01 -9.34 26.02 -9 25 C-8.5875 25.495 -8.175 25.99 -7.75 26.5 C-5.87797662 28.43386092 -5.87797662 28.43386092 -2 28 C-1.97494385 27.25838623 -1.9498877 26.51677246 -1.92407227 25.75268555 C-1.80813868 22.39744672 -1.68540015 19.04249056 -1.5625 15.6875 C-1.52318359 14.52025391 -1.48386719 13.35300781 -1.44335938 12.15039062 C-1.40146484 11.03212891 -1.35957031 9.91386719 -1.31640625 8.76171875 C-1.27974854 7.73006592 -1.24309082 6.69841309 -1.20532227 5.63549805 C-1 3 -1 3 0 0 Z " fill="#536B8B" transform="translate(214,57)"/>
<path d="M0 0 C0.33 0 0.66 0 1 0 C1 1.65 1 3.3 1 5 C1.66 5 2.32 5 3 5 C3 8.63 3 12.26 3 16 C1.68 15.34 0.36 14.68 -1 14 C-1 14.66 -1 15.32 -1 16 C-1.99 16.33 -2.98 16.66 -4 17 C-4.33 16.01 -4.66 15.02 -5 14 C-7.00016466 12.79117904 -7.00016466 12.79117904 -9 12 C-9 10.35 -9 8.7 -9 7 C-7.68 7 -6.36 7 -5 7 C-4.67 6.01 -4.34 5.02 -4 4 C-2.68 4 -1.36 4 0 4 C0 2.68 0 1.36 0 0 Z " fill="#2A4974" transform="translate(327,61)"/>
<path d="M0 0 C2.94337249 1.47168624 4.54662605 2.76018722 6.625 5.3125 C7.15625 8.1875 7.15625 8.1875 7.125 11.3125 C7.1353125 12.34375 7.145625 13.375 7.15625 14.4375 C6.5137369 17.91462971 5.30860831 19.09745822 2.625 21.3125 C2.769375 20.6525 2.91375 19.9925 3.0625 19.3125 C3.74799916 15.65650449 4.18675515 12.00627805 4.625 8.3125 C1.34726496 9.06400023 1.34726496 9.06400023 -0.375 12.3125 C-0.705 11.3225 -1.035 10.3325 -1.375 9.3125 C-2.365 10.7975 -2.365 10.7975 -3.375 12.3125 C-3.54 11.673125 -3.705 11.03375 -3.875 10.375 C-5.156786 8.15130759 -5.156786 8.15130759 -7.2890625 7.82421875 C-9.31075155 7.5849022 -11.34341939 7.44356972 -13.375 7.3125 C-13.375 6.9825 -13.375 6.6525 -13.375 6.3125 C-11.75085622 6.11772261 -10.12563577 5.93190542 -8.5 5.75 C-7.59507812 5.64558594 -6.69015625 5.54117188 -5.7578125 5.43359375 C-3.375 5.3125 -3.375 5.3125 -1.375 6.3125 C-1.375 4.9925 -1.375 3.6725 -1.375 2.3125 C-2.365 1.6525 -3.355 0.9925 -4.375 0.3125 C-2.375 -0.6875 -2.375 -0.6875 0 0 Z " fill="#3B6087" transform="translate(419.375,49.6875)"/>
<path d="M0 0 C5.28 0 10.56 0 16 0 C16 2.31 16 4.62 16 7 C12.18483536 8.30062431 8.72438237 7.89369853 4.75 7.5625 C3.48671875 7.46066406 2.2234375 7.35882813 0.921875 7.25390625 C-0.04234375 7.17011719 -1.0065625 7.08632813 -2 7 C-0.68 6.67 0.64 6.34 2 6 C2 4.68 2 3.36 2 2 C1.34 1.34 0.68 0.68 0 0 Z " fill="#2D5283" transform="translate(169,49)"/>
<path d="M0 0 C3.3 0 6.6 0 10 0 C10 9.9 10 19.8 10 30 C9.67 30 9.34 30 9 30 C9 20.43 9 10.86 9 1 C8.67 1.66 8.34 2.32 8 3 C7.34 3 6.68 3 6 3 C5.34 4.32 4.68 5.64 4 7 C3.01 7 2.02 7 1 7 C1 15.25 1 23.5 1 32 C0.67 32 0.34 32 0 32 C0 21.44 0 10.88 0 0 Z " fill="#7D92B1" transform="translate(249,48)"/>
<path d="M0 0 C0.97841798 3.04396703 1.19015674 5.00080502 0 8 C-1.84765625 9.046875 -1.84765625 9.046875 -4.0625 9.75 C-5.16271484 10.11351563 -5.16271484 10.11351563 -6.28515625 10.484375 C-7.13400391 10.73960938 -7.13400391 10.73960938 -8 11 C-7.67 11.99 -7.34 12.98 -7 14 C-10.375 14.125 -10.375 14.125 -14 14 C-16 12 -16 12 -17 9 C-16.67 8.34 -16.34 7.68 -16 7 C-13.49609375 6.5859375 -13.49609375 6.5859375 -10.4375 6.375 C-9.42558594 6.30023438 -8.41367187 6.22546875 -7.37109375 6.1484375 C-6.58863281 6.09945312 -5.80617188 6.05046875 -5 6 C-4.67 5.01 -4.34 4.02 -4 3 C-3.01 2.67 -2.02 2.34 -1 2 C-0.67 1.34 -0.34 0.68 0 0 Z " fill="#2D507E" transform="translate(471,73)"/>
<path d="M0 0 C0.33 0 0.66 0 1 0 C1.0825 1.27875 1.165 2.5575 1.25 3.875 C1.45869931 6.05333418 1.45869931 6.05333418 2 8 C3.92064793 9.5899433 3.92064793 9.5899433 6 10 C6 11.32 6 12.64 6 14 C5.34 14.66 4.68 15.32 4 16 C3.34 15.67 2.68 15.34 2 15 C2 21.6 2 28.2 2 35 C2.99 35.33 3.98 35.66 5 36 C3.0625 36.5625 3.0625 36.5625 1 37 C0 36 0 36 -0.11352539 32.58178711 C-0.11336628 31.06363012 -0.10767226 29.54546771 -0.09765625 28.02734375 C-0.0962413 27.22970108 -0.09482635 26.43205841 -0.09336853 25.61024475 C-0.08775316 23.05262565 -0.07519812 20.49509282 -0.0625 17.9375 C-0.05748698 16.20768355 -0.05292373 14.47786574 -0.04882812 12.74804688 C-0.03777875 8.49866447 -0.02050386 4.24934688 0 0 Z " fill="#2290A7" transform="translate(396,50)"/>
<path d="M0 0 C9.24 0 18.48 0 28 0 C28 2.97 28 5.94 28 9 C27.34 8.67 26.68 8.34 26 8 C26.33 5.69 26.66 3.38 27 1 C23.72761969 1.02278381 20.45874097 1.10005764 17.1875 1.1875 C15.7943457 1.19620117 15.7943457 1.19620117 14.37304688 1.20507812 C11.82211815 1.28796029 9.48584363 1.4174972 7 2 C4.93879133 4.25393276 4.93879133 4.25393276 4 7 C3.44699219 7.50144531 2.89398438 8.00289062 2.32421875 8.51953125 C0.47758215 10.58406008 0.69432055 11.96937275 0.8125 14.6875 C0.83957031 15.49574219 0.86664063 16.30398437 0.89453125 17.13671875 C0.92933594 17.75160156 0.96414062 18.36648437 1 19 C0.34 19 -0.32 19 -1 19 C-1.02705308 16.58325776 -1.04686438 14.1668206 -1.0625 11.75 C-1.07087891 11.06808594 -1.07925781 10.38617188 -1.08789062 9.68359375 C-1.10481414 6.1973503 -0.8533497 3.41339881 0 0 Z " fill="#49799A" transform="translate(158,48)"/>
<path d="M0 0 C5.67276511 -0.29341888 8.99067246 -0.00559652 14 3 C12 5 12 5 8.5 5.0625 C7.345 5.041875 6.19 5.02125 5 5 C4.01 5.495 4.01 5.495 3 6 C3.804375 6.2475 4.60875 6.495 5.4375 6.75 C6.283125 7.1625 7.12875 7.575 8 8 C8.33 9.32 8.66 10.64 9 12 C5.7 12 2.4 12 -1 12 C-2.125 6.25 -2.125 6.25 -1 4 C-0.34 4 0.32 4 1 4 C0.67 2.68 0.34 1.36 0 0 Z M2 8 C1.01 9.485 1.01 9.485 0 11 C2.64 11 5.28 11 8 11 C7.34 10.01 6.68 9.02 6 8 C4.68 8 3.36 8 2 8 Z " fill="#59779F" transform="translate(286,57)"/>
<path d="M0 0 C2.31 0 4.62 0 7 0 C7 0.66 7 1.32 7 2 C-0.43586996 4.17256722 -7.33949976 5.29917156 -15.0625 5.3125 C-15.78816162 5.31765625 -16.51382324 5.3228125 -17.26147461 5.328125 C-20.98468227 5.27932462 -23.83982942 5.06026705 -27 3 C-27 2.67 -27 2.34 -27 2 C-18.09 2 -9.18 2 0 2 C0 1.34 0 0.68 0 0 Z " fill="#5B8ED5" transform="translate(86,125)"/>
<path d="M0 0 C0.33 0 0.66 0 1 0 C1.33 8.58 1.66 17.16 2 26 C3.65 26.33 5.3 26.66 7 27 C6.979375 26.195625 6.95875 25.39125 6.9375 24.5625 C7 22 7 22 8 21 C8.23075082 19.65252916 8.41153063 18.29622435 8.5625 16.9375 C8.706875 15.638125 8.85125 14.33875 9 13 C9.33 13 9.66 13 10 13 C10 18.28 10 23.56 10 29 C3 30 3 30 0 29 C0 19.43 0 9.86 0 0 Z " fill="#778BAB" transform="translate(427,58)"/>
<path d="M0 0 C0.33 0 0.66 0 1 0 C1.33 2.64 1.66 5.28 2 8 C1.01 7.34 0.02 6.68 -1 6 C-1.763125 6.804375 -2.52625 7.60875 -3.3125 8.4375 C-6.79720103 11.76012191 -9.05777544 12.12959746 -13.6875 12.0625 C-14.89986328 12.04896484 -14.89986328 12.04896484 -16.13671875 12.03515625 C-17.05904297 12.01775391 -17.05904297 12.01775391 -18 12 C-18 11.34 -18 10.68 -18 10 C-17.31292969 9.86722656 -16.62585938 9.73445313 -15.91796875 9.59765625 C-14.56638672 9.33275391 -14.56638672 9.33275391 -13.1875 9.0625 C-12.29417969 8.88847656 -11.40085937 8.71445313 -10.48046875 8.53515625 C-7.88602829 8.02258847 -7.88602829 8.02258847 -5 7 C-5 6.01 -5 5.02 -5 4 C-6.32 3.67 -7.64 3.34 -9 3 C-9 2.34 -9 1.68 -9 1 C-7.700625 1.020625 -6.40125 1.04125 -5.0625 1.0625 C-3.70834367 1.08399454 -2.35243917 1.07148199 -1 1 C-0.67 0.67 -0.34 0.34 0 0 Z " fill="#7589A2" transform="translate(304,76)"/>
<path d="M0 0 C2.4375 1.4375 2.4375 1.4375 3.25 4.5625 C3.311875 5.51125 3.37375 6.46 3.4375 7.4375 C2.4475 7.1075 1.4575 6.7775 0.4375 6.4375 C-2.51005143 6.8840987 -3.39954973 7.27454973 -5.5625 9.4375 C-5.5625 8.4475 -5.5625 7.4575 -5.5625 6.4375 C-8.03516765 6.78194881 -8.03516765 6.78194881 -10.5625 7.4375 C-10.8925 8.0975 -11.2225 8.7575 -11.5625 9.4375 C-10.5725 9.7675 -9.5825 10.0975 -8.5625 10.4375 C-9.8825 10.4375 -11.2025 10.4375 -12.5625 10.4375 C-12.5625 8.1275 -12.5625 5.8175 -12.5625 3.4375 C-11.5725 3.4375 -10.5825 3.4375 -9.5625 3.4375 C-9.5625 4.0975 -9.5625 4.7575 -9.5625 5.4375 C-8.2425 5.4375 -6.9225 5.4375 -5.5625 5.4375 C-5.376875 4.2309375 -5.376875 4.2309375 -5.1875 3 C-4.98125 2.154375 -4.775 1.30875 -4.5625 0.4375 C-2.5625 -0.5625 -2.5625 -0.5625 0 0 Z " fill="#42658D" transform="translate(326.5625,58.5625)"/>
<path d="M0 0 C0.90105469 0.00902344 1.80210937 0.01804688 2.73046875 0.02734375 C3.41753906 0.03894531 4.10460937 0.05054688 4.8125 0.0625 C3.8225 0.3925 2.8325 0.7225 1.8125 1.0625 C2.8025 1.7225 3.7925 2.3825 4.8125 3.0625 C5.39453125 4.90234375 5.39453125 4.90234375 5.625 7 C5.71394531 7.68964844 5.80289062 8.37929687 5.89453125 9.08984375 C5.8125 11.0625 5.8125 11.0625 3.8125 14.0625 C1.6875 8.4375 1.6875 8.4375 2.8125 5.0625 C-2.35848932 4.18606113 -5.36674942 3.72099258 -10.1875 6.0625 C-11.1775 6.0625 -12.1675 6.0625 -13.1875 6.0625 C-8.77664445 1.41321983 -6.38358264 -0.08290367 0 0 Z " fill="#576F98" transform="translate(460.1875,56.9375)"/>
<path d="M0 0 C0.33 0.66 0.66 1.32 1 2 C1.99 2 2.98 2 4 2 C3.84660156 2.63292969 3.69320313 3.26585937 3.53515625 3.91796875 C2.81937036 8.04026849 2.63849837 12.13766507 2.4375 16.3125 C2.39431641 17.14845703 2.35113281 17.98441406 2.30664062 18.84570312 C2.20114693 20.89696935 2.10012685 22.9484648 2 25 C1.34 25 0.68 25 0 25 C-1.01965824 20.79188662 -1.13364501 16.82250521 -1.125 12.5 C-1.12757812 11.2109375 -1.13015625 9.921875 -1.1328125 8.59375 C-1.02135753 5.57790967 -0.70804225 2.92207912 0 0 Z " fill="#6C9AD8" transform="translate(10,55)"/>
<path d="M0 0 C2 0 4 0 6 0 C6.25 7.625 6.25 7.625 4 11 C2.35 10.67 0.7 10.34 -1 10 C-2.23076923 4.58461538 -2.23076923 4.58461538 -1.0625 1.625 C-0.5365625 0.820625 -0.5365625 0.820625 0 0 Z " fill="#2D5182" transform="translate(418,58)"/>
<path d="M0 0 C0.66 0 1.32 0 2 0 C2 0.66 2 1.32 2 2 C2.66 2 3.32 2 4 2 C2.59965804 6.20102588 0.61302173 8.87887673 -2.375 12.125 C-3.14585938 12.97320312 -3.91671875 13.82140625 -4.7109375 14.6953125 C-6.70849217 16.70650236 -8.68171438 18.3803758 -11 20 C-11.33 18.68 -11.66 17.36 -12 16 C-11.34 15.67 -10.68 15.34 -10 15 C-9.34 15.33 -8.68 15.66 -8 16 C-8.33 14.35 -8.66 12.7 -9 11 C-7.35 10.67 -5.7 10.34 -4 10 C-3.67 9.01 -3.34 8.02 -3 7 C-0.9375 6.3125 -0.9375 6.3125 1 6 C0.67 4.02 0.34 2.04 0 0 Z " fill="#5489D4" transform="translate(123,96)"/>
<path d="M0 0 C1.98 0 3.96 0 6 0 C6 9.57 6 19.14 6 29 C-1 28 -1 28 -2.9375 25.9375 C-3.288125 25.298125 -3.63875 24.65875 -4 24 C-3.01 23.67 -2.02 23.34 -1 23 C-1 23.66 -1 24.32 -1 25 C0.98 24.67 2.96 24.34 5 24 C5 16.74 5 9.48 5 2 C3.35 1.67 1.7 1.34 0 1 C0 0.67 0 0.34 0 0 Z " fill="#354E72" transform="translate(239,59)"/>
<path d="M0 0 C0.77999376 2.33998128 1.42036234 4.60899466 2 7 C2.185625 7.7425 2.37125 8.485 2.5625 9.25 C2.7790625 10.11625 2.7790625 10.11625 3 11 C2.67 10.34 2.34 9.68 2 9 C1.505 9.33 1.01 9.66 0.5 10 C-3.09090894 11.43636358 -6.14456127 11.12851462 -10 11 C-10 10.67 -10 10.34 -10 10 C-7.36 9.34 -4.72 8.68 -2 8 C-4.31 7.67 -6.62 7.34 -9 7 C-8.505 6.54625 -8.01 6.0925 -7.5 5.625 C-5.77390663 4.12364481 -5.77390663 4.12364481 -6 2 C-4.02 1.34 -2.04 0.68 0 0 Z " fill="#5A7599" transform="translate(235,77)"/>
<path d="M0 0 C0.33 0 0.66 0 1 0 C1.33 4.29 1.66 8.58 2 13 C2.99 13.33 3.98 13.66 5 14 C5 15.98 5 17.96 5 20 C4.01 20.33 3.02 20.66 2 21 C1.67 23.31 1.34 25.62 1 28 C0.67 28 0.34 28 0 28 C0 18.76 0 9.52 0 0 Z " fill="#274873" transform="translate(428,58)"/>
<path d="M0 0 C1.65 1.32 3.3 2.64 5 4 C3.68 4 2.36 4 1 4 C1.57584432 6.38564077 2.22227595 8.66682784 3 11 C4.98 11 6.96 11 9 11 C9 11.33 9 11.66 9 12 C3.7837917 12.3129725 0.43424223 11.85058429 -4 9 C-4.33 8.01 -4.66 7.02 -5 6 C-4.34 5.34 -3.68 4.68 -3 4 C-2.67 3.01 -2.34 2.02 -2 1 C-1.34 0.67 -0.68 0.34 0 0 Z " fill="#4C698F" transform="translate(454,76)"/>
<path d="M0 0 C0 0.66 0 1.32 0 2 C0.99 2 1.98 2 3 2 C3 4.31 3 6.62 3 9 C1.35 9 -0.3 9 -2 9 C-2 8.34 -2 7.68 -2 7 C-2.99 6.67 -3.98 6.34 -5 6 C-5 4.33333333 -5 2.66666667 -5 1 C-3 0 -3 0 0 0 Z " fill="#2E4D76" transform="translate(329,78)"/>
<path d="M0 0 C4.62 0 9.24 0 14 0 C14 0.33 14 0.66 14 1 C13.22914063 1.03738281 12.45828125 1.07476562 11.6640625 1.11328125 C10.15972656 1.21189453 10.15972656 1.21189453 8.625 1.3125 C7.12839844 1.39951172 7.12839844 1.39951172 5.6015625 1.48828125 C4.74304688 1.65714844 3.88453125 1.82601562 3 2 C2.01 3.485 2.01 3.485 1 5 C1.33 5.99 1.66 6.98 2 8 C1.34 8 0.68 8 0 8 C-0.66 8.66 -1.32 9.32 -2 10 C-3.32 9.34 -4.64 8.68 -6 8 C-6 6.68 -6 5.36 -6 4 C-6.99 3.67 -7.98 3.34 -9 3 C-6.69 3.33 -4.38 3.66 -2 4 C-1.34 2.68 -0.68 1.36 0 0 Z " fill="#6381A9" transform="translate(282,75)"/>
<path d="M0 0 C0.66 0.33 1.32 0.66 2 1 C-3.75 6 -3.75 6 -6 6 C-6.33 7.65 -6.66 9.3 -7 11 C-8.65 11.33 -10.3 11.66 -12 12 C-11.52354792 7.71193127 -10.34097516 5.73352513 -7 3 C-6.34 3 -5.68 3 -5 3 C-5 2.34 -5 1.68 -5 1 C-3 0 -3 0 0 0 Z " fill="#4985D9" transform="translate(38,17)"/>
<path d="M0 0 C0.33 0 0.66 0 1 0 C1 5.94 1 11.88 1 18 C-1.31 18 -3.62 18 -6 18 C-5.75 16.125 -5.75 16.125 -5 14 C-4.34 13.7525 -3.68 13.505 -3 13.25 C-2.01 12.63125 -2.01 12.63125 -1 12 C-0.29464389 9.1213065 -0.29464389 9.1213065 -0.25 5.875 C-0.19328125 4.77929688 -0.1365625 3.68359375 -0.078125 2.5546875 C-0.05234375 1.71164063 -0.0265625 0.86859375 0 0 Z " fill="#2D4C75" transform="translate(380,69)"/>
<path d="M0 0 C1.875 1.5 1.875 1.5 3 3 C3 3.33 3 3.66 3 4 C0.36 4 -2.28 4 -5 4 C-5 3.01 -5 2.02 -5 1 C-5.928125 1.845625 -6.85625 2.69125 -7.8125 3.5625 C-9.39453125 5.00390625 -9.39453125 5.00390625 -11 6 C-11.99 5.67 -12.98 5.34 -14 5 C-14 4.34 -14 3.68 -14 3 C-9.44641189 -1.06570367 -5.8723764 -1.49933015 0 0 Z " fill="#2E527D" transform="translate(461,61)"/>
<path d="M0 0 C3.58395685 0.11004161 7.16687917 0.24063297 10.75 0.375 C11.76578125 0.4059375 12.7815625 0.436875 13.828125 0.46875 C14.8078125 0.50742188 15.7875 0.54609375 16.796875 0.5859375 C17.69760742 0.6173584 18.59833984 0.6487793 19.52636719 0.68115234 C22.08822875 1.01137256 23.78127437 1.70951673 26 3 C21.87536584 3.19622046 17.75028427 3.38050216 13.625 3.5625 C12.449375 3.61857422 11.27375 3.67464844 10.0625 3.73242188 C8.94101562 3.78076172 7.81953125 3.82910156 6.6640625 3.87890625 C5.62717285 3.9260376 4.5902832 3.97316895 3.52197266 4.02172852 C1 4 1 4 -1 3 C-0.67 2.01 -0.34 1.02 0 0 Z " fill="#2C4768" transform="translate(250,84)"/>
<path d="M0 0 C1.875 0.3125 1.875 0.3125 4 1 C4.66 1.99 5.32 2.98 6 4 C8.05003955 5.19232613 8.05003955 5.19232613 10 6 C10 6.66 10 7.32 10 8 C9.01 8.66 8.02 9.32 7 10 C5.99831469 11.94832935 5.99831469 11.94832935 5.3125 14.125 C5.06113281 14.84945312 4.80976563 15.57390625 4.55078125 16.3203125 C4.36902344 16.87460938 4.18726563 17.42890625 4 18 C3.67 18 3.34 18 3 18 C3.03480469 16.64455078 3.03480469 16.64455078 3.0703125 15.26171875 C3.09738281 13.49248047 3.09738281 13.49248047 3.125 11.6875 C3.14820313 10.51574219 3.17140625 9.34398438 3.1953125 8.13671875 C3.25320618 4.83606339 3.25320618 4.83606339 1 2 C0.67 1.34 0.34 0.68 0 0 Z " fill="#2A4C79" transform="translate(462,58)"/>
<path d="M0 0 C0.99 0.33 1.98 0.66 3 1 C3 3.64 3 6.28 3 9 C2.34 9 1.68 9 1 9 C1 9.66 1 10.32 1 11 C0.01 11.33 -0.98 11.66 -2 12 C-2.66 9.36 -3.32 6.72 -4 4 C-3.34 3.67 -2.68 3.34 -2 3 C-1.34 2.01 -0.68 1.02 0 0 Z " fill="#2E5383" transform="translate(325,66)"/>
<path d="M0 0 C7.87935266 0.14931718 16.81610587 1.3844319 23.75 5.3125 C21.81215735 5.17129286 19.87473045 5.02437127 17.9375 4.875 C16.85855469 4.79378906 15.77960938 4.71257813 14.66796875 4.62890625 C11.75 4.3125 11.75 4.3125 8.75 3.3125 C6.18365139 3.08531504 3.63321893 2.89641816 1.0625 2.75 C0.36060547 2.70681641 -0.34128906 2.66363281 -1.06445312 2.61914062 C-2.79275206 2.5133264 -4.5213511 2.41243419 -6.25 2.3125 C-3.85032657 -0.08717343 -3.28453794 0.01631393 0 0 Z " fill="#73A1D6" transform="translate(71.25,4.6875)"/>
<path d="M0 0 C3.3 0 6.6 0 10 0 C10 0.33 10 0.66 10 1 C7.36 1 4.72 1 2 1 C2 3.97 2 6.94 2 10 C4.97 10 7.94 10 11 10 C10.67 10.99 10.34 11.98 10 13 C2.25 12.25 2.25 12.25 0 10 C-0.94782553 6.03636598 -1.00811858 4.03247433 0 0 Z " fill="#2C4A70" transform="translate(404,55)"/>
<path d="M0 0 C1.32 0.33 2.64 0.66 4 1 C4 2.32 4 3.64 4 5 C2.68 5.33 1.36 5.66 0 6 C-0.66 8.31 -1.32 10.62 -2 13 C-2.33 13 -2.66 13 -3 13 C-3 11.35 -3 9.7 -3 8 C-3.66 8 -4.32 8 -5 8 C-5.33 7.01 -5.66 6.02 -6 5 C-5.34 4.01 -4.68 3.02 -4 2 C-3.01 2 -2.02 2 -1 2 C-0.67 1.34 -0.34 0.68 0 0 Z " fill="#2D507E" transform="translate(198,57)"/>
<path d="M0 0 C2.97 0.495 2.97 0.495 6 1 C6 2.32 6 3.64 6 5 C5.34 5 4.68 5 4 5 C4 6.98 4 8.96 4 11 C3.34 10.67 2.68 10.34 2 10 C1.34 10.99 0.68 11.98 0 13 C0 8.71 0 4.42 0 0 Z " fill="#365980" transform="translate(429,57)"/>
<path d="M0 0 C0.99 0.99 1.98 1.98 3 3 C0.32444477 5.67555523 -1.08390374 6.00799083 -4.9375 6.375 C-8.64472145 6.24334167 -11.03236935 5.31846144 -14 3 C-14 2.67 -14 2.34 -14 2 C-7.07 2.495 -7.07 2.495 0 3 C0 2.01 0 1.02 0 0 Z " fill="#647D9C" transform="translate(204,82)"/>
<path d="M0 0 C2.31 0 4.62 0 7 0 C7 2.31 7 4.62 7 7 C1.39 7 -4.22 7 -10 7 C-10 6.34 -10 5.68 -10 5 C-5.1666528 4.91666643 -0.76307437 5.04738513 4 6 C4 4.35 4 2.7 4 1 C2.68 0.67 1.36 0.34 0 0 Z " fill="#324D74" transform="translate(177,64)"/>
<path d="M0 0 C2.4375 0.75 2.4375 0.75 4.4375 1.75 C4.1075 3.73 3.7775 5.71 3.4375 7.75 C0.4675 6.76 -2.5025 5.77 -5.5625 4.75 C-5.5625 2.75 -5.5625 2.75 -4.375 1.0625 C-2.5625 -0.25 -2.5625 -0.25 0 0 Z " fill="#2F5788" transform="translate(371.5625,60.25)"/>
<path d="M0 0 C1.98 0.99 1.98 0.99 4 2 C4.99 2.33 5.98 2.66 7 3 C5.92598892 5.91517292 5.22189824 7.77810176 3 10 C2.67 9.67 2.34 9.34 2 9 C1.34 9.99 0.68 10.98 0 12 C0 8.04 0 4.08 0 0 Z " fill="#3A5A82" transform="translate(276,66)"/>
<path d="M0 0 C0.66 0 1.32 0 2 0 C2.33 1.65 2.66 3.3 3 5 C2.01 5.66 1.02 6.32 0 7 C-0.33 6.34 -0.66 5.68 -1 5 C-2.32 6.32 -3.64 7.64 -5 9 C-6.32 8.01 -7.64 7.02 -9 6 C-8.34 4.68 -7.68 3.36 -7 2 C-7 2.66 -7 3.32 -7 4 C-4.08482708 2.92598892 -2.22189824 2.22189824 0 0 Z " fill="#496A93" transform="translate(454,62)"/>
<path d="M0 0 C0.33 1.32 0.66 2.64 1 4 C-0.98 3.34 -2.96 2.68 -5 2 C-5.33 2.99 -5.66 3.98 -6 5 C-6.66 5 -7.32 5 -8 5 C-7.67 5.99 -7.34 6.98 -7 8 C-7.99 8.66 -8.98 9.32 -10 10 C-9.125 4.125 -9.125 4.125 -8 3 C-8.66 2.34 -9.32 1.68 -10 1 C-6.1496895 -1.56687367 -4.41430237 -0.83288724 0 0 Z " fill="#4B668E" transform="translate(374,58)"/>
<path d="M0 0 C0.33 0 0.66 0 1 0 C1 6.27 1 12.54 1 19 C-0.65 18.67 -2.3 18.34 -4 18 C-4.33 16.02 -4.66 14.04 -5 12 C-4.01 11.67 -3.02 11.34 -2 11 C-1.67 11.33 -1.34 11.66 -1 12 C-0.67 8.04 -0.34 4.08 0 0 Z " fill="#2E4D75" transform="translate(362,69)"/>
<path d="M0 0 C0.33 0 0.66 0 1 0 C1.0825 1.27875 1.165 2.5575 1.25 3.875 C1.45869931 6.05333418 1.45869931 6.05333418 2 8 C3.92064793 9.5899433 3.92064793 9.5899433 6 10 C6 11.32 6 12.64 6 14 C5.34 14.66 4.68 15.32 4 16 C2.68 15.34 1.36 14.68 0 14 C0 9.38 0 4.76 0 0 Z " fill="#2D88A9" transform="translate(396,50)"/>
<path d="M0 0 C-0.33 0.66 -0.66 1.32 -1 2 C-1.66 2 -2.32 2 -3 2 C-3 2.66 -3 3.32 -3 4 C-4.5159375 4.185625 -4.5159375 4.185625 -6.0625 4.375 C-9.87937612 4.98085335 -13.31500112 5.87193912 -17 7 C-12.40810425 2.03847797 -6.82699701 -0.6826997 0 0 Z " fill="#548AD4" transform="translate(55,9)"/>
<path d="M0 0 C0.33 0 0.66 0 1 0 C1.144375 0.9075 1.28875 1.815 1.4375 2.75 C1.86409473 5.21476956 2.35074221 7.58847107 3 10 C0.29120665 11.35439668 -2.00933268 11.06501451 -5 11 C-5 7 -5 7 -3.625 5.5 C-3.08875 5.005 -2.5525 4.51 -2 4 C-0.82425289 1.90010348 -0.82425289 1.90010348 0 0 Z " fill="#39577E" transform="translate(403,77)"/>
<path d="M0 0 C1.99954746 -0.04254356 4.00041636 -0.04080783 6 0 C6.33 0.33 6.66 0.66 7 1 C7.99 0.67 8.98 0.34 10 0 C10.66 0.66 11.32 1.32 12 2 C11.01 2 10.02 2 9 2 C9 2.66 9 3.32 9 4 C10.65 4 12.3 4 14 4 C14 4.99 14 5.98 14 7 C8.547001 5.43181728 4.23513217 3.96189783 0 0 Z " fill="#558CD6" transform="translate(39,120)"/>
<path d="M0 0 C0.66 0.33 1.32 0.66 2 1 C1.875 3.25 1.875 3.25 1 6 C-4.08108108 10 -4.08108108 10 -7 10 C-7 9.34 -7 8.68 -7 8 C-7.66 7.67 -8.32 7.34 -9 7 C-2.25 4 -2.25 4 0 4 C0 2.68 0 1.36 0 0 Z " fill="#4B678A" transform="translate(471,77)"/>
<path d="M0 0 C2.39285081 1.83430738 2.96004165 2.74405058 3.43359375 5.77734375 C3.43488281 6.82019531 3.43617188 7.86304688 3.4375 8.9375 C3.45683594 9.97777344 3.47617187 11.01804687 3.49609375 12.08984375 C2.89569116 15.61189042 1.71458985 16.76919844 -1 19 C-0.83628906 18.32582031 -0.67257812 17.65164062 -0.50390625 16.95703125 C0.0875358 13.48632094 0.09539046 10.20677876 0.0625 6.6875 C0.04896484 4.80611328 0.04896484 4.80611328 0.03515625 2.88671875 C0.02355469 1.93410156 0.01195312 0.98148438 0 0 Z " fill="#687D98" transform="translate(423,52)"/>
<path d="M0 0 C0.99 0.33 1.98 0.66 3 1 C2.34 1 1.68 1 1 1 C0.67 2.65 0.34 4.3 0 6 C-1.32 6 -2.64 6 -4 6 C-4 5.34 -4 4.68 -4 4 C-6.31 3.67 -8.62 3.34 -11 3 C-6.8204355 0.21362367 -4.85331323 1.20437488 0 2 C0 1.34 0 0.68 0 0 Z " fill="#2C4D7A" transform="translate(321,58)"/>
<path d="M0 0 C2.4375 0.375 2.4375 0.375 5 1 C5.33 1.66 5.66 2.32 6 3 C5.01 3 4.02 3 3 3 C2.67 3.66 2.34 4.32 2 5 C2 3.68 2 2.36 2 1 C1.34 0.67 0.68 0.34 0 0 Z M-2 5 C-0.68 5 0.64 5 2 5 C2.33 5.99 2.66 6.98 3 8 C2.21625 8.0825 1.4325 8.165 0.625 8.25 C-2.14749104 8.72806339 -2.14749104 8.72806339 -3.3125 11.0625 C-3.6528125 12.0215625 -3.6528125 12.0215625 -4 13 C-3.125 6.125 -3.125 6.125 -2 5 Z " fill="#5C7B9E" transform="translate(200,57)"/>
<path d="M0 0 C-0.99 0.33 -1.98 0.66 -3 1 C-3 1.66 -3 2.32 -3 3 C-6.1635377 5.169283 -9.4124787 6.66749209 -13 8 C-10.06538131 1.45354292 -7.07546995 -0.15381456 0 0 Z " fill="#466080" transform="translate(290,58)"/>
<path d="M0 0 C0.33 0.66 0.66 1.32 1 2 C1.99 2.33 2.98 2.66 4 3 C5.1875 5.0625 5.1875 5.0625 6 7 C5.01 7 4.02 7 3 7 C3 6.34 3 5.68 3 5 C-0.60992379 5.65585189 -0.60992379 5.65585189 -4 7 C-3.67 5.02 -3.34 3.04 -3 1 C-2.01 0.67 -1.02 0.34 0 0 Z " fill="#4B85DD" transform="translate(116,23)"/>
<path d="M0 0 C0.99 0.33 1.98 0.66 3 1 C4.3917773 1.21555251 5.78831216 1.40193746 7.1875 1.5625 C8.445625 1.706875 9.70375 1.85125 11 2 C11 2.99 11 3.98 11 5 C3.61538462 5.49230769 3.61538462 5.49230769 0.5 3 C0.005 2.34 -0.49 1.68 -1 1 C-0.67 0.67 -0.34 0.34 0 0 Z " fill="#657A98" transform="translate(307,83)"/>
<path d="M0 0 C0.66 0.33 1.32 0.66 2 1 C1.44854729 6.23880078 0.57077907 10.97350697 -1 16 C-1.33 16 -1.66 16 -2 16 C-2.2358396 10.22192976 -1.86783046 5.48675196 0 0 Z " fill="#5F92D2" transform="translate(133,74)"/>
<path d="M0 0 C2.53541298 0.09086451 5.03554784 0.2370945 7.5625 0.4375 C8.62887695 0.51581055 8.62887695 0.51581055 9.71679688 0.59570312 C11.47821999 0.72574107 13.23916173 0.86226897 15 1 C15 1.33 15 1.66 15 2 C10.38 2 5.76 2 1 2 C1.33 4.31 1.66 6.62 2 9 C1.01 9 0.02 9 -1 9 C-1.09765625 2.84765625 -1.09765625 2.84765625 -1 1 C-0.67 0.67 -0.34 0.34 0 0 Z " fill="#445C7D" transform="translate(166,55)"/>
<path d="M0 0 C3.83663072 1.34929464 6.65172569 3.07751025 9.8125 5.625 C10.99779297 6.57246094 10.99779297 6.57246094 12.20703125 7.5390625 C12.79871094 8.02117188 13.39039062 8.50328125 14 9 C11 10 11 10 9 10 C6.375 7.625 6.375 7.625 4 5 C4 4.34 4 3.68 4 3 C3.01 3 2.02 3 1 3 C0.67 2.01 0.34 1.02 0 0 Z " fill="#77A2DA" transform="translate(102,13)"/>
<path d="M0 0 C0.66 0 1.32 0 2 0 C2 2.31 2 4.62 2 7 C-1.81516464 8.30062431 -5.27561763 7.89369853 -9.25 7.5625 C-10.51328125 7.46066406 -11.7765625 7.35882813 -13.078125 7.25390625 C-14.04234375 7.17011719 -15.0065625 7.08632813 -16 7 C-16 6.67 -16 6.34 -16 6 C-8.08 5.505 -8.08 5.505 0 5 C0 3.35 0 1.7 0 0 Z " fill="#284368" transform="translate(183,49)"/>
<path d="M0 0 C0.66 0 1.32 0 2 0 C2 0.66 2 1.32 2 2 C2.66 2 3.32 2 4 2 C2.6062718 6.43458973 0.39417765 8.87378374 -3 12 C-3 10.35 -3 8.7 -3 7 C-1.68 6.67 -0.36 6.34 1 6 C0.67 4.02 0.34 2.04 0 0 Z " fill="#6297D9" transform="translate(123,96)"/>
<path d="M0 0 C2.0625 2.1875 2.0625 2.1875 4 5 C3.75 7.8125 3.75 7.8125 3 10 C1.68 9.67 0.36 9.34 -1 9 C-1.09765625 2.84765625 -1.09765625 2.84765625 -1 1 C-0.67 0.67 -0.34 0.34 0 0 Z " fill="#284A75" transform="translate(446,67)"/>
<path d="M0 0 C1.50433594 0.01353516 1.50433594 0.01353516 3.0390625 0.02734375 C3.80992187 0.03894531 4.58078125 0.05054688 5.375 0.0625 C4.385 0.3925 3.395 0.7225 2.375 1.0625 C2.375 1.7225 2.375 2.3825 2.375 3.0625 C0.5496875 3.0315625 0.5496875 3.0315625 -1.3125 3 C-4.54477322 2.99425884 -7.47434741 3.27483685 -10.625 4.0625 C-7.08123475 0.35765451 -5.12573278 -0.05960154 0 0 Z " fill="#627A96" transform="translate(318.625,56.9375)"/>
<path d="M0 0 C0.99 0.33 1.98 0.66 3 1 C3.185625 2.7015625 3.185625 2.7015625 3.375 4.4375 C3.684375 6.2009375 3.684375 6.2009375 4 8 C4.66 8.33 5.32 8.66 6 9 C4.68 9.99 3.36 10.98 2 12 C1.855625 10.948125 1.71125 9.89625 1.5625 8.8125 C1.12473034 5.84539451 0.62195134 2.93205634 0 0 Z " fill="#577599" transform="translate(435,58)"/>
<path d="M0 0 C5.67276511 -0.29341888 8.99067246 -0.00559652 14 3 C13.34 3.66 12.68 4.32 12 5 C9.12014216 4.57044137 6.46186823 3.47704949 3.75 2.4375 C3.04359375 2.16808594 2.3371875 1.89867187 1.609375 1.62109375 C1.07828125 1.41613281 0.5471875 1.21117187 0 1 C0 0.67 0 0.34 0 0 Z " fill="#587292" transform="translate(286,57)"/>
<path d="M0 0 C2.31 0 4.62 0 7 0 C6.375 2.375 6.375 2.375 5 5 C1.875 6.3125 1.875 6.3125 -1 7 C0.75 3.125 0.75 3.125 3 2 C2.01 1.34 1.02 0.68 0 0 Z " fill="#5F7899" transform="translate(306,68)"/>
<path d="M0 0 C0.99 0.495 0.99 0.495 2 1 C2 2.65 2 4.3 2 6 C2.66 6 3.32 6 4 6 C6.29633824 9.44450737 6.54016485 11.93812283 7 16 C3.52983334 14.26491667 2.39915041 10.48863053 1 7 C0.45445164 4.63152176 0.20260661 2.43127932 0 0 Z " fill="#7DA5DC" transform="translate(12,84)"/>
<path d="M0 0 C3.3 0.33 6.6 0.66 10 1 C9.34 2.65 8.68 4.3 8 6 C5.21788056 5.62403791 3.4120716 5.32681541 1.1875 3.5625 C0 2 0 2 0 0 Z " fill="#2E4F7D" transform="translate(313,79)"/>
<path d="M0 0 C0.66 0.33 1.32 0.66 2 1 C3.425 8.3625 3.425 8.3625 1 12 C-0.61511451 7.45749044 -1.56221947 4.6866584 0 0 Z " fill="#4B6C96" transform="translate(463,59)"/>
<path d="M0 0 C0.33 0 0.66 0 1 0 C1 2.97 1 5.94 1 9 C1.99 8.67 2.98 8.34 4 8 C4.66 8.33 5.32 8.66 6 9 C6 9.66 6 10.32 6 11 C4.02 11.33 2.04 11.66 0 12 C0 8.04 0 4.08 0 0 Z " fill="#3578D3" transform="translate(65,75)"/>
<path d="M0 0 C0.33 1.32 0.66 2.64 1 4 C-2.75 5.125 -2.75 5.125 -5 4 C-6.66619446 3.9603287 -8.33391013 3.95615553 -10 4 C-10.33 3.34 -10.66 2.68 -11 2 C-7.37 2 -3.74 2 0 2 C0 1.34 0 0.68 0 0 Z " fill="#284870" transform="translate(295,67)"/>
<path d="M0 0 C2.475 0.495 2.475 0.495 5 1 C5 2.65 5 4.3 5 6 C3.35 5.67 1.7 5.34 0 5 C0 3.35 0 1.7 0 0 Z " fill="#2B5080" transform="translate(438,59)"/>
<path d="M0 0 C0 0.99 0 1.98 0 3 C-1 4 -1 4 -3.06640625 4.09765625 C-3.89011719 4.08605469 -4.71382813 4.07445313 -5.5625 4.0625 C-6.38878906 4.05347656 -7.21507812 4.04445313 -8.06640625 4.03515625 C-8.70449219 4.02355469 -9.34257812 4.01195313 -10 4 C-10 3.34 -10 2.68 -10 2 C-6.7 1.34 -3.4 0.68 0 0 Z " fill="#6F819D" transform="translate(296,84)"/>
<path d="M0 0 C0.99 0 1.98 0 3 0 C3 0.66 3 1.32 3 2 C4.32 1.67 5.64 1.34 7 1 C7 1.99 7 2.98 7 4 C7.99 4.33 8.98 4.66 10 5 C8.02 5.99 8.02 5.99 6 7 C5.67 6.34 5.34 5.68 5 5 C5.33 4.34 5.66 3.68 6 3 C3.69 3 1.38 3 -1 3 C-0.67 2.01 -0.34 1.02 0 0 Z " fill="#2B4970" transform="translate(307,65)"/>
<path d="M0 0 C1.2065625 0.0309375 1.2065625 0.0309375 2.4375 0.0625 C2.4375 0.7225 2.4375 1.3825 2.4375 2.0625 C1.4475 2.7225 0.4575 3.3825 -0.5625 4.0625 C-1.28632467 6.12175139 -1.28632467 6.12175139 -1.5625 8.0625 C-2.2225 7.7325 -2.8825 7.4025 -3.5625 7.0625 C-3.60504356 5.06295254 -3.60330783 3.06208364 -3.5625 1.0625 C-2.5625 0.0625 -2.5625 0.0625 0 0 Z " fill="#6D7D97" transform="translate(221.5625,57.9375)"/>
<path d="M0 0 C0.721875 0.103125 1.44375 0.20625 2.1875 0.3125 C2.1875 0.9725 2.1875 1.6325 2.1875 2.3125 C-4.4375 5.3125 -4.4375 5.3125 -7.8125 5.3125 C-3.50480769 0.38942308 -3.50480769 0.38942308 0 0 Z " fill="#4C6285" transform="translate(454.8125,57.6875)"/>
<path d="M0 0 C1.65 0 3.3 0 5 0 C4.67 1.32 4.34 2.64 4 4 C2.02 4 0.04 4 -2 4 C-1.34 2.68 -0.68 1.36 0 0 Z " fill="#2B5183" transform="translate(326,81)"/>
<path d="M0 0 C2.76276177 0.52268466 5.3260876 1.10869587 8 2 C8 3.65 8 5.3 8 7 C5.525 6.01 5.525 6.01 3 5 C3 3.68 3 2.36 3 1 C2.01 0.67 1.02 0.34 0 0 Z " fill="#6A90A7" transform="translate(273,78)"/>
<path d="M0 0 C1.41377341 2.63904371 2.37240135 5.07120629 3 8 C1.35 8 -0.3 8 -2 8 C-2 6.35 -2 4.7 -2 3 C-1.34 3 -0.68 3 0 3 C0 2.01 0 1.02 0 0 Z " fill="#3D5F87" transform="translate(251,77)"/>
<path d="M0 0 C0.66 0 1.32 0 2 0 C1.67 3.63 1.34 7.26 1 11 C0.01 10.01 -0.98 9.02 -2 8 C-2 7.01 -2 6.02 -2 5 C-1.34 5 -0.68 5 0 5 C0 3.35 0 1.7 0 0 Z " fill="#2F4E76" transform="translate(435,68)"/>
<path d="M0 0 C3.94463583 3.77312992 3.94463583 3.77312992 4.09765625 7.1640625 C4.08605469 7.97617188 4.07445312 8.78828125 4.0625 9.625 C4.05347656 10.44226563 4.04445313 11.25953125 4.03515625 12.1015625 C4.02355469 12.72804688 4.01195312 13.35453125 4 14 C3.67 14 3.34 14 3 14 C2.87625 12.906875 2.7525 11.81375 2.625 10.6875 C2.24535199 6.92618198 2.24535199 6.92618198 0 4 C0 2.68 0 1.36 0 0 Z " fill="#8D9DB8" transform="translate(300,61)"/>
<path d="M0 0 C0.99 0.33 1.98 0.66 3 1 C2.01 1.495 2.01 1.495 1 2 C0.34227572 5.02934491 0.34227572 5.02934491 0 8 C-1.5625 6.75 -1.5625 6.75 -3 5 C-2.8125 2.875 -2.8125 2.875 -2 1 C-1.34 0.67 -0.68 0.34 0 0 Z " fill="#2A4E7C" transform="translate(364,60)"/>
<path d="M0 0 C2.4375 1.4375 2.4375 1.4375 3.25 4.5625 C3.311875 5.51125 3.37375 6.46 3.4375 7.4375 C2.7775 7.4375 2.1175 7.4375 1.4375 7.4375 C1.4375 5.7875 1.4375 4.1375 1.4375 2.4375 C-0.5425 2.4375 -2.5225 2.4375 -4.5625 2.4375 C-4.5625 1.7775 -4.5625 1.1175 -4.5625 0.4375 C-2.5625 -0.5625 -2.5625 -0.5625 0 0 Z " fill="#697B97" transform="translate(326.5625,58.5625)"/>
<path d="M0 0 C3.37503669 1.1858237 5.64722731 2.27573689 8 5 C7.67 5.66 7.34 6.32 7 7 C1.125 3.375 1.125 3.375 0 0 Z " fill="#7D8FA5" transform="translate(465,58)"/>
<path d="M0 0 C0.83449189 3.33796756 1.46019653 6.60694964 2 10 C1.01 10.495 1.01 10.495 0 11 C-0.66 10.67 -1.32 10.34 -2 10 C-1.34 6.7 -0.68 3.4 0 0 Z " fill="#6596DB" transform="translate(13,45)"/>
<path d="M0 0 C1.88391785 3.26545761 2.49287967 6.28111761 3 10 C2.01 10.495 2.01 10.495 1 11 C-0.62950412 6.87831311 -1.26264601 4.29299643 0 0 Z " fill="#6290D6" transform="translate(131,46)"/>
<path d="M0 0 C0.33 0 0.66 0 1 0 C1.33 2.31 1.66 4.62 2 7 C0.35 6.67 -1.3 6.34 -3 6 C-1.125 1.125 -1.125 1.125 0 0 Z " fill="#456486" transform="translate(190,61)"/>
<path d="M0 0 C0 1.98 0 3.96 0 6 C-0.99 6.33 -1.98 6.66 -3 7 C-3.66 5.35 -4.32 3.7 -5 2 C-2 0 -2 0 0 0 Z " fill="#4D6C95" transform="translate(208,63)"/>
<path d="M0 0 C4.75 1.875 4.75 1.875 7 3 C6.34 4.32 5.68 5.64 5 7 C3.35 4.69 1.7 2.38 0 0 Z " fill="#729FD8" transform="translate(22,105)"/>
<path d="M0 0 C2.475 0.495 2.475 0.495 5 1 C5 1.66 5 2.32 5 3 C6.98 3 8.96 3 11 3 C11 3.33 11 3.66 11 4 C4.375 4.125 4.375 4.125 1 3 C0.67 2.01 0.34 1.02 0 0 Z " fill="#7D95AD" transform="translate(452,84)"/>
<path d="M0 0 C0.99 0.33 1.98 0.66 3 1 C3.33 1.99 3.66 2.98 4 4 C1.69 4 -0.62 4 -3 4 C-3 3.34 -3 2.68 -3 2 C-2.01 1.34 -1.02 0.68 0 0 Z " fill="#2B4E76" transform="translate(369,61)"/>
<path d="M0 0 C0.66 0.33 1.32 0.66 2 1 C-0.35968744 3.09749995 -1.54616994 3.96905704 -4.75 4.1875 C-5.86375 4.0946875 -5.86375 4.0946875 -7 4 C-6.34 3.67 -5.68 3.34 -5 3 C-5 2.34 -5 1.68 -5 1 C-3 0 -3 0 0 0 Z " fill="#5B90D6" transform="translate(38,17)"/>
<path d="M0 0 C0.66 1.32 1.32 2.64 2 4 C-1.75 7 -1.75 7 -4 7 C-3.67 5.68 -3.34 4.36 -3 3 C-2.01 3.33 -1.02 3.66 0 4 C0 2.68 0 1.36 0 0 Z " fill="#5F93D9" transform="translate(108,114)"/>
<path d="M0 0 C0.66 0 1.32 0 2 0 C2.625 2.875 2.625 2.875 3 6 C2.34 6.66 1.68 7.32 1 8 C-0.35439668 5.29120665 -0.06501451 2.99066732 0 0 Z " fill="#2C4A6E" transform="translate(305,76)"/>
<path d="M0 0 C0.99 0 1.98 0 3 0 C3 1.32 3 2.64 3 4 C2.01 4 1.02 4 0 4 C0 4.66 0 5.32 0 6 C-0.66 5.67 -1.32 5.34 -2 5 C-1.34 3.35 -0.68 1.7 0 0 Z " fill="#496282" transform="translate(307,61)"/>
<path d="M0 0 C0 0.66 0 1.32 0 2 C-7.42857143 2.28571429 -7.42857143 2.28571429 -11 0 C-7.01803543 -1.05404945 -4.01804691 -0.84098656 0 0 Z " fill="#607995" transform="translate(347,58)"/>
</svg>
